<svg xmlns="http://www.w3.org/2000/svg" viewBox="0 0 112.12 103.83"><defs><style>.cls-1{fill:#231f20;}.cls-1,.cls-2{stroke:#231f20;stroke-miterlimit:10;}.cls-2{fill:#fff;}</style></defs><g id="Layer_2" data-name="Layer 2"><g id="Layer_2-2" data-name="Layer 2"><path class="cls-1" d="M110.9,37.65a10.27,10.27,0,0,0-3.36-5,10.53,10.53,0,0,0-7.68-2.16l-5.28.24a24.53,24.53,0,0,0-1.44-8.88c-2.5-6.87-7.49-10.64-10.56-13a39.73,39.73,0,0,0-13.2-6.48,45.67,45.67,0,0,0-22.08-1A48.57,48.57,0,0,0,31.22,8.14c-5,3-8.54,5.16-11.28,9.6a23.37,23.37,0,0,0-3.36,11.52c-2.8.39-5.6.8-8.4,1.2a12.49,12.49,0,0,0-3.6,2.16,13,13,0,0,0-3.6,5L.5,63.09a12.63,12.63,0,0,0,3.84,4.56,13,13,0,0,0,3.84,1.93l8.88.24,1.2,9.6A89.05,89.05,0,0,0,34.34,94.77c10.09,7.46,15.74,8.24,17.28,8.41a27.69,27.69,0,0,0,10.56-1C78.31,98,91,81,93.86,77c.08-2.4.16-4.81.24-7.2l10.56-.73a12.54,12.54,0,0,0,4.56-3.35,12.72,12.72,0,0,0,2.4-4.32ZM86.18,75.33a72.94,72.94,0,0,1-8.4,9.61c-5.14,4.92-10,9.42-17.28,11a19.33,19.33,0,0,1-7.2.48c-4.73-.65-8-3.12-13.2-7.69C36,85.17,31,80.46,25.46,74.62L23.54,44.14a30.74,30.74,0,0,0,15.36-.25A31.45,31.45,0,0,0,55.7,32.14,36.05,36.05,0,0,0,75.62,44.38a34.15,34.15,0,0,0,12.48.24Z"/><path class="cls-1" d="M72,59c0,2.41-2.22,4.63-4.56,4.31A4.32,4.32,0,1,1,72,59Z"/><path class="cls-2" d="M75.62,44.38A36.05,36.05,0,0,1,55.7,32.14,31.45,31.45,0,0,1,38.9,43.89a30.74,30.74,0,0,1-15.36.25l1.92,30.48C31,80.46,36,85.17,40.1,88.77c5.18,4.57,8.47,7,13.2,7.69A19.33,19.33,0,0,0,60.5,96c7.33-1.62,12.14-6.12,17.28-11a72.94,72.94,0,0,0,8.4-9.61L88.1,44.62A34.15,34.15,0,0,1,75.62,44.38ZM44.42,63.82c-2.84,0-5.28-3.13-4.56-5.52a4.27,4.27,0,0,1,3.84-2.65c2.42-.13,5.17,1.83,5,4.33A4.43,4.43,0,0,1,44.42,63.82Zm23-.49A4.32,4.32,0,1,1,72,59C72,61.43,69.8,63.65,67.46,63.33Z"/><path class="cls-1" d="M48.74,60a4.43,4.43,0,0,1-4.32,3.84c-2.84,0-5.28-3.13-4.56-5.52a4.27,4.27,0,0,1,3.84-2.65C46.12,55.52,48.87,57.48,48.74,60Z"/></g></g></svg>