<svg xmlns="http://www.w3.org/2000/svg" viewBox="0 0 111.34 105.94"><defs><style>.cls-1{fill:#231f20;}.cls-1,.cls-2{stroke:#231f20;stroke-miterlimit:10;}.cls-2{fill:#fff;}</style></defs><g id="Layer_2" data-name="Layer 2"><g id="Layer_2-2" data-name="Layer 2"><path class="cls-1" d="M110.47,80.3,95,47.18l-.54-20.34a32.71,32.71,0,0,0-4.32-9.9C84.74,8.69,77.05,5.29,73.57,3.8,58.35-2.7,44.06,2.15,39.73,3.62c-5.36,1.82-12.14,4.22-17.46,11a30.68,30.68,0,0,0-5.94,13.32l-.18,19.26c-1.85,3.75-4.25,8.64-7,14.4C.7,79.13-.19,81.89.85,85.16c1.8,5.65,8,8.47,17.1,12.6a75.45,75.45,0,0,0,17.28,5.4,105.15,105.15,0,0,0,37.44,1.08c10.91-1.66,34.57-5.26,37.8-17.82A12.88,12.88,0,0,0,110.47,80.3ZM32,93.8A3.39,3.39,0,0,1,28.39,90a3.06,3.06,0,0,1,2.7-2.16,3.13,3.13,0,0,1,3.24,2A3.19,3.19,0,0,1,32,93.8ZM30.55,57.26a8.68,8.68,0,0,1-2-6.3c.61-4.64,5.68-6.66,7-7.2a13.6,13.6,0,0,1,10.8.54,9.58,9.58,0,0,1,4.5,4.32c1.86,3.93-.06,7.88-.36,8.46Zm22,3.78a7.82,7.82,0,0,1,4.68.54c3.32,1.58,5.26,5.83,4.68,10.62l-12.6.36a9,9,0,0,1-.36-7.74A8.42,8.42,0,0,1,52.51,61ZM43.15,90.2l-4.68.72a9.32,9.32,0,0,1,.72-8.1,8.58,8.58,0,0,1,4.14-3.24Zm9.9-.54-6.3.9.54-14.22L53.05,76ZM63,90.92,57.73,90,57,75.44,63,75.26Zm4.14-.9q-1.7-9.73-.18-10.26,1-.36,3.6,3.6L71.59,90Zm12.42,3.6A3,3,0,1,1,82,90,3,3,0,0,1,79.51,93.62ZM82,56.72l-22.14-.9c-.18-.39-2.23-5.15.36-8.82a9,9,0,0,1,5.4-3.24,14.28,14.28,0,0,1,9.54.9c2,.85,4.8,2.09,6.3,5.22A10.16,10.16,0,0,1,82,56.72Zm22,27.54c-.66.49-2.17-.19-3.06-1.08-1.26-1.25-1.16-2.76-1.62-4.86-.36-1.62-.72-2.11-2.52-5.94-2.4-5.1-4.56-10.32-6.84-15.48a98.05,98.05,0,0,0-5-10.44c-2.77-4.8-4.28-6.23-5.94-7.2a15.24,15.24,0,0,0-7.56-1.8c-2.57-.1-5.48-.21-8.28,1.44-2.16,1.27-2.65,2.64-5.4,3.6a6.66,6.66,0,0,1-3.6.54c-2.25-.41-2.76-2.14-5.22-3.78a13.5,13.5,0,0,0-5.58-2,17.84,17.84,0,0,0-9.72,1.08,15.81,15.81,0,0,0-6.3,4.5c-.43.53-1,1.34-3.78,8.46-1.7,4.4-1.93,5.31-3.06,7.74-.85,1.84-1.23,2.42-2.7,5.22-1,1.86-3.1,5.9-4.86,9.72C9.69,81,9.05,84.39,8.23,84.26s-1.08-3.15-.72-5.76A15.59,15.59,0,0,1,10,72s2.23-5.36,6.66-16c4.92-11.85,5.29-13.61,8.1-16.2a24.15,24.15,0,0,1,7.74-4.68,22,22,0,0,1,10.26-1.44,16.44,16.44,0,0,1,8.1,2.52c2.17,1.49,3,3,4.68,2.88,1.3-.12,1.62-1.12,3.78-2.52a17.2,17.2,0,0,1,4.5-2,21.44,21.44,0,0,1,8.46-.9A21.74,21.74,0,0,1,79.87,36a20,20,0,0,1,5.4,4c1,1,2.26,2.61,5.4,10.62,2,5.22,1.94,5.67,3.6,9.54,1.51,3.52,3,6.35,3.78,7.92,2.24,4.32,3.45,6.11,4.86,9.9C103.87,80.53,105,83.54,104,84.26Z"/><path class="cls-2" d="M50.53,57.08l-20,.18a8.68,8.68,0,0,1-2-6.3c.61-4.64,5.68-6.66,7-7.2a13.6,13.6,0,0,1,10.8.54,9.58,9.58,0,0,1,4.5,4.32C52.75,52.55,50.83,56.5,50.53,57.08Z"/><path class="cls-2" d="M82,56.72l-22.14-.9c-.18-.39-2.23-5.15.36-8.82a9,9,0,0,1,5.4-3.24,14.28,14.28,0,0,1,9.54.9c2,.85,4.8,2.09,6.3,5.22A10.16,10.16,0,0,1,82,56.72Z"/><path class="cls-2" d="M61.87,72.2l-12.6.36a9,9,0,0,1-.36-7.74A8.42,8.42,0,0,1,52.51,61a7.82,7.82,0,0,1,4.68.54C60.51,63.16,62.45,67.41,61.87,72.2Z"/><path class="cls-2" d="M104,84.26c-.66.49-2.17-.19-3.06-1.08-1.26-1.25-1.16-2.76-1.62-4.86-.36-1.62-.72-2.11-2.52-5.94-2.4-5.1-4.56-10.32-6.84-15.48a98.05,98.05,0,0,0-5-10.44c-2.77-4.8-4.28-6.23-5.94-7.2a15.24,15.24,0,0,0-7.56-1.8c-2.57-.1-5.48-.21-8.28,1.44-2.16,1.27-2.65,2.64-5.4,3.6a6.66,6.66,0,0,1-3.6.54c-2.25-.41-2.76-2.14-5.22-3.78a13.5,13.5,0,0,0-5.58-2,17.84,17.84,0,0,0-9.72,1.08,15.81,15.81,0,0,0-6.3,4.5c-.43.53-1,1.34-3.78,8.46-1.7,4.4-1.93,5.31-3.06,7.74-.85,1.84-1.23,2.42-2.7,5.22-1,1.86-3.1,5.9-4.86,9.72C9.69,81,9.05,84.39,8.23,84.26s-1.08-3.15-.72-5.76A15.59,15.59,0,0,1,10,72s2.23-5.36,6.66-16c4.92-11.85,5.29-13.61,8.1-16.2a24.15,24.15,0,0,1,7.74-4.68,22,22,0,0,1,10.26-1.44,16.44,16.44,0,0,1,8.1,2.52c2.17,1.49,3,3,4.68,2.88,1.3-.12,1.62-1.12,3.78-2.52a17.2,17.2,0,0,1,4.5-2,21.44,21.44,0,0,1,8.46-.9A21.74,21.74,0,0,1,79.87,36a20,20,0,0,1,5.4,4c1,1,2.26,2.61,5.4,10.62,2,5.22,1.94,5.67,3.6,9.54,1.51,3.52,3,6.35,3.78,7.92,2.24,4.32,3.45,6.11,4.86,9.9C103.87,80.53,105,83.54,104,84.26Z"/><path class="cls-2" d="M32,93.8A3.39,3.39,0,0,1,28.39,90a3.06,3.06,0,0,1,2.7-2.16,3.13,3.13,0,0,1,3.24,2A3.19,3.19,0,0,1,32,93.8Z"/><path class="cls-2" d="M79.51,93.62A3,3,0,1,1,82,90,3,3,0,0,1,79.51,93.62Z"/><path class="cls-2" d="M71.59,90h-4.5q-1.7-9.73-.18-10.26,1-.36,3.6,3.6Z"/><path class="cls-2" d="M43.33,79.58,43.15,90.2l-4.68.72a9.32,9.32,0,0,1,.72-8.1A8.58,8.58,0,0,1,43.33,79.58Z"/><path class="cls-2" d="M53.05,76V89.66l-6.3.9.54-14.22Z"/><path class="cls-2" d="M63,75.26V90.92L57.73,90,57,75.44Z"/></g></g></svg>